<?xml version="1.0" encoding="UTF-8"?>
<svg version="1.1" xmlns="http://www.w3.org/2000/svg" width="512" height="512">
<path d="M0 0 C18.75525398 17.6032998 22.84905227 44.50076766 23.90762329 68.99377441 C24.1105691 75.92392697 24.12268557 82.85258259 24.09765625 89.78515625 C24.09583344 90.83542999 24.09401062 91.88570374 24.09213257 92.96780396 C24.0050248 122.81455715 23.78357664 155.92001807 1.515625 178.53125 C-21.6657084 200.85033065 -55.87630552 200.41898983 -86.02734375 200.47265625 C-87.51225311 200.47817001 -87.51225311 200.47817001 -89.02716064 200.48379517 C-118.37444138 200.54060733 -151.56887305 199.67725875 -174.40234375 178.53515625 C-196.13400397 155.24806022 -196.44570107 120.6305036 -196.40234375 90.66015625 C-196.4017395 89.88045471 -196.40113525 89.10075317 -196.4005127 88.29742432 C-196.3376592 58.22509138 -195.54551587 25.14184663 -174.01953125 1.77734375 C-138.58421766 -31.62583716 -37.18772216 -30.89138825 0 0 Z M-95.54052734 12.21435547 C-124.01835533 12.5990414 -124.01835533 12.5990414 -149.71484375 23.47265625 C-163.1851756 37.95326299 -163.44135296 59.4185151 -163.90234375 78.16015625 C-163.93128723 79.22982635 -163.93128723 79.22982635 -163.96081543 80.32110596 C-166.00490371 119.33699986 -166.00490371 119.33699986 -152.015625 154.3828125 C-134.88741112 171.28809952 -103.24648475 168.50815173 -81.06445312 168.39453125 C-49.73530327 168.7658832 -49.73530327 168.7658832 -22.1015625 156.29296875 C-6.26952451 140.02677981 -7.99488194 111.83399373 -8.02734375 90.59765625 C-8.02825012 89.49204849 -8.02825012 89.49204849 -8.0291748 88.36410522 C-7.27169113 54.00017389 -7.27169113 54.00017389 -21.9921875 24.359375 C-36.98486589 12.00344577 -60.81395281 12.58898239 -79.21484375 12.16015625 C-81.04595703 12.11568359 -81.04595703 12.11568359 -82.9140625 12.0703125 C-87.12678275 12.02544329 -91.32914408 12.1162107 -95.54052734 12.21435547 Z " fill="#000000" transform="translate(467.21484375,290.83984375)"/>
<path d="M0 0 C1.5361496 0.00273422 1.5361496 0.00273422 3.10333252 0.00552368 C32.80587142 0.09433218 65.69900847 0.43880354 88.18359375 22.58203125 C109.64755039 44.87520464 110.00005149 77.58325056 109.99780273 106.70239258 C109.99997857 109.84405291 110.01816185 112.98535505 110.03710938 116.12695312 C110.11758465 144.6051244 108.64318858 176.40785633 88.1875 198.5 C64.96363327 220.17265426 30.29652176 220.54634472 0.375 220.5 C-0.3557373 220.49939575 -1.08647461 220.4987915 -1.83935547 220.49816895 C-32.28788337 220.43045417 -65.45825213 219.49309415 -89.08984375 197.5703125 C-110.21241792 174.83502782 -110.416999 140.07130337 -110.375 110.875 C-110.37439575 110.0928009 -110.3737915 109.31060181 -110.37316895 108.50469971 C-110.31192375 79.12717339 -109.8165013 44.84053615 -88.4375 22.0625 C-64.98980354 0.01264698 -30.18821647 -0.11209484 0 0 Z M-65.98828125 46.08984375 C-83.75936222 67.65326458 -79.56773506 112.22909081 -77.1875 138.3125 C-75.86084137 151.29619589 -74.24655801 166.95523674 -64.1875 176.3125 C-46.24532702 190.78613834 -15.03359136 188.87141001 6.8125 188.3125 C7.60060059 188.29461426 8.38870117 188.27672852 9.20068359 188.25830078 C39.71879973 188.02739295 39.71879973 188.02739295 65.8125 174.3125 C84.44745338 151.26741844 79.54846672 106.18447386 76.80126953 78.49169922 C75.1937964 64.73590167 72.4090248 51.23391276 61.33984375 42.06640625 C45.13378536 30.81985259 19.65712556 32.09754224 0.875 32.125 C0.10925659 32.12560425 -0.65648682 32.1262085 -1.44543457 32.12683105 C-36.08424384 31.30964859 -36.08424384 31.30964859 -65.98828125 46.08984375 Z " fill="#000000" transform="translate(381.1875,20.6875)"/>
<path d="M0 0 C0.75441376 0.00060425 1.50882751 0.0012085 2.28610229 0.00183105 C32.86635249 0.06777056 66.21632278 0.89843171 89.96484375 22.9296875 C111.21385031 45.80105769 111.29389681 80.80955754 111.25 110.1875 C111.24939575 110.94352509 111.2487915 111.69955017 111.24816895 112.47848511 C111.18521185 141.71246027 110.57078583 175.7880789 89.3125 198.4375 C65.86480354 220.48735302 31.06321647 220.61209484 0.875 220.5 C-0.6611496 220.49726578 -0.6611496 220.49726578 -2.22833252 220.49447632 C-31.60840167 220.40663198 -64.1459034 220.12928864 -86.72265625 198.50390625 C-108.51577675 175.71145395 -109.12510289 143.58229747 -109.12280273 113.79760742 C-109.12497857 110.65594709 -109.14316185 107.51464495 -109.16210938 104.37304688 C-109.24258465 75.8948756 -107.76818858 44.09214367 -87.3125 22 C-64.17396015 0.4069733 -29.8034343 -0.04464129 0 0 Z M-8.26318359 32.24169922 C-38.78262157 32.5583225 -38.78262157 32.5583225 -64.9375 46.1875 C-78.73611475 62.64253256 -77.15566406 89.50685853 -77.125 109.6875 C-77.12439575 110.4270694 -77.1237915 111.16663879 -77.12316895 111.92861938 C-77.92632312 145.02676906 -77.92632312 145.02676906 -65.0703125 174.30078125 C-48.93382549 190.00657911 -20.97277419 188.40592917 0.0625 188.375 C0.82574585 188.37439575 1.5889917 188.3737915 2.37536621 188.37316895 C36.98608805 189.18439549 36.98608805 189.18439549 66.86328125 174.41015625 C84.63436222 152.84673542 80.44273506 108.27090919 78.0625 82.1875 C76.73584137 69.20380411 75.12155801 53.54476326 65.0625 44.1875 C46.55942777 29.261394 14.18538229 31.71854347 -8.26318359 32.24169922 Z " fill="#000000" transform="translate(129.9375,270.8125)"/>
<path d="M0 0 C2.99621864 0.01072254 5.99183638 0.00002637 8.98803711 -0.01269531 C37.57532957 -0.03448876 69.57332927 1.35020541 91.75170898 21.88574219 C113.34473568 45.02428204 113.79635027 79.39480789 113.75170898 109.19824219 C113.75110474 109.95265594 113.75050049 110.7070697 113.74987793 111.48434448 C113.68386446 142.09889391 112.82898665 175.35552869 90.83374023 199.15917969 C86.82349254 202.87262764 82.30928089 205.5872651 77.56420898 208.26074219 C76.89647461 208.65003906 76.22874023 209.03933594 75.54077148 209.44042969 C66.60427011 214.30460132 56.71901133 216.41679775 46.75170898 217.94824219 C45.59880371 218.12722046 45.59880371 218.12722046 44.42260742 218.30981445 C31.07834453 220.20459018 17.58331601 220.4690848 4.12670898 220.44824219 C3.39597168 220.44763794 2.66523438 220.44703369 1.91235352 220.44641113 C-27.50992559 220.38097864 -61.8728293 219.92252391 -84.68579102 198.51074219 C-105.97124545 175.87590312 -106.81729974 142.58685513 -106.6965332 113.34277344 C-106.68579939 110.26314624 -106.69651094 107.18410208 -106.70922852 104.10449219 C-106.73018307 75.90781586 -105.29342033 43.61811565 -84.68579102 22.01074219 C-62.42183636 0.77691081 -28.95655429 -0.12268727 0 0 Z M-62.68579102 46.32324219 C-76.14195142 62.57070005 -74.65344065 89.91865241 -74.62329102 109.76074219 C-74.62268677 110.50031158 -74.62208252 111.23988098 -74.62145996 112.00186157 C-75.38494226 146.39391051 -75.38494226 146.39391051 -60.65844727 176.06152344 C-45.59495302 188.47581419 -21.8706699 187.8423673 -3.43579102 188.26074219 C-2.27692383 188.29039062 -1.11805664 188.32003906 0.07592773 188.35058594 C3.24384986 188.38785561 6.39697753 188.34186281 9.56420898 188.26074219 C10.34699219 188.24285645 11.12977539 188.2249707 11.9362793 188.20654297 C40.89596018 187.92487283 40.89596018 187.92487283 67.06420898 176.94824219 C80.53454084 162.46763545 80.79071819 141.00238334 81.25170898 122.26074219 C81.27100464 121.54762878 81.29030029 120.83451538 81.31018066 120.09979248 C83.32476285 81.03555791 83.32476285 81.03555791 69.24389648 45.97167969 C55.45952207 31.93085179 30.55228461 32.28761399 12.27905273 32.09277344 C9.3531937 32.07242206 6.42762906 32.06895035 3.50170898 32.07324219 C2.35442322 32.07414856 2.35442322 32.07414856 1.18395996 32.07507324 C-33.24947383 31.34986025 -33.24947383 31.34986025 -62.68579102 46.32324219 Z " fill="#000000" transform="translate(127.435791015625,20.7392578125)"/>
</svg>
